{"title":"The Marriage Of Figaro 2010 XViD DVDRip DTRG","uid":6534695,"size":822536027,"categoryP":"video","categoryS":"movies","magnet":"?xt=urn:btih:82de89736008ceabe3a9b027ab1971a93bf76aaa&amp;dn=The+Marriage+Of+Figaro+2010+XViD+DVDRip+DTRG&amp;tr=udp%3A%2F%2Ftracker.openbittorrent.com%3A80&amp;tr=udp%3A%2F%2Fopen.demonii.com%3A1337&amp;tr=udp%3A%2F%2Ftracker.coppersurfer.tk%3A6969&amp;tr=udp%3A%2F%2Fexodus.desync.com%3A6969","seeders":0,"leechers":4,"uploader":"SAFCukO09","files":3,"time":1310471588,"description":"Format : AVI\nFormat/Info : Audio Video Interleave\nFile size : 784 MiB\nDuration : 1h 33mn\nOverall bit rate : 1 178 Kbps\nWriting application : VirtualDubMod 1.5.10.2 (build 2540/release)\nWriting library : VirtualDub build 32842/release\n\nVideo\nID : 0\nFormat : MPEG-4 Visual\nFormat profile : Advanced Simple@L5\nFormat settings, BVOP : 2\nFormat settings, QPel : No\nFormat settings, GMC : No warppoints\nFormat settings, Matrix : Default (H.263)\nMuxing mode : Packed bitstream\nCodec ID : XVID\nCodec ID/Hint : XviD\nDuration : 1h 33mn\nBit rate : 1 035 Kbps\nWidth : 640 pixels\nHeight : 352 pixels\nDisplay aspect ratio : 16:9\nFrame rate : 25.000 fps\nColor space : YUV\nChroma subsampling : 4:2:0\nBit depth : 8 bits\nScan type : Progressive\nCompression mode : Lossy\nBits/(Pixel*Frame) : 0.184\nStream size : 689 MiB (88%)\nWriting library : XviD 64\n\nAudio\nID : 1\nFormat : MPEG Audio\nFormat version : Version 1\nFormat profile : Layer 3\nMode : Joint stereo\nMode extension : MS Stereo\nCodec ID : 55\nCodec ID/Hint : MP3\nDuration : 1h 33mn\nBit rate mode : Variable\nBit rate : 128 Kbps\nChannel(s) : 2 channels\nSampling rate : 48.0 KHz\nCompression mode : Lossy\nStream size : 86.7 MiB (11%)\nAlignment : Aligned on interleaves\nInterleave, duration : 24 ms (0.60 video frame)\nInterleave, preload duration : 460 ms\nWriting library : LAME3.90.\nEncoding settings : -m j -V 4 -q 2 -lowpass 17.6 --abr 128\n\n\n\n\n\n &lt;a href=&quot;\nhttp://www.imdb.com/title/tt1389086/&quot; rel=&quot;nofollow&quot; target=&quot;_NEW&quot;&gt;\nhttp://www.imdb.com/title/tt1389086/&lt;/a&gt;\n\n\n\n\n\n\n\n\n\nUsers: (16 votes) 2 reviews | Critics: 5 reviews\n\n\nFig is a knockabout Aussie bloke who loves his lady, his two kids and his Harley, though not necessarily in that order. All in all life is pretty sweet, but when lady Sheree puts the hard word on him to get hitched, everything goes pear-shaped.\n\nDirector: Chris Moon\nWriter: Chris Moon (screenwriter)\nStars: Michael Allen, Peta Astbury and Andrew Bartlett\n\n","torrent":{"xt":"urn:btih:82de89736008ceabe3a9b027ab1971a93bf76aaa","amp;dn":"The+Marriage+Of+Figaro+2010+XViD+DVDRip+DTRG","amp;tr":["udp%3A%2F%2Ftracker.openbittorrent.com%3A80","udp%3A%2F%2Fopen.demonii.com%3A1337","udp%3A%2F%2Ftracker.coppersurfer.tk%3A6969","udp%3A%2F%2Fexodus.desync.com%3A6969"],"infoHash":"82de89736008ceabe3a9b027ab1971a93bf76aaa","infoHashBuffer":{"type":"Buffer","data":[130,222,137,115,96,8,206,171,227,169,176,39,171,25,113,169,59,247,106,170]},"announce":[],"urlList":[]}}